 <svg  version="1.0" xmlns="http://www.w3.org/2000/svg"  width="300.000000pt" height="200.000000pt" viewBox="0 0 300.000000 200.000000"  preserveAspectRatio="xMidYMid meet">  <g transform="translate(0.000000,200.000000) scale(0.100000,-0.100000)" fill="#87ceeb" stroke="none"> <path d="M2187 1641 c-41 -37 -96 -139 -128 -240 -27 -83 -76 -148 -134 -176 -44 -20 -65 -14 -65 19 0 20 9 29 43 44 74 34 125 100 112 149 -9 36 -47 39 -98 10 -41 -25 -97 -90 -97 -114 0 -16 -40 -43 -62 -43 -18 0 -18 2 -2 32 27 51 35 90 23 105 -6 7 -15 13 -20 13 -18 0 -49 -66 -49 -105 0 -41 -51 -139 -78 -150 -42 -16 -41 22 3 131 19 48 32 90 30 94 -3 5 -17 5 -31 1 -22 -6 -31 -20 -53 -82 -35 -99 -94 -180 -120 -165 -10 7 19 97 52 162 8 16 18 39 22 52 6 21 4 22 -22 16 -15 -4 -32 -9 -38 -12 -5 -4 -24 -5 -42 -3 -65 5 -117 -41 -179 -160 -37 -70 -73 -107 -94 -94 -17 11 -11 38 25 114 49 101 48 105 -20 97 -43 -5 -55 -3 -55 8 0 7 -6 19 -14 25 -34 29 -76 -35 -45 -66 9 -9 -4 -40 -50 -123 -59 -107 -71 -140 -52 -140 18 0 36 28 90 138 45 91 59 111 80 115 14 3 27 4 29 3 1 -2 -11 -34 -28 -72 -38 -85 -39 -147 -1 -152 37 -6 67 6 97 37 l28 30 11 -22 c17 -35 66 -34 108 2 33 29 35 30 40 11 9 -36 61 -26 107 21 38 40 40 40 40 16 0 -26 16 -37 55 -37 24 0 87 62 107 106 7 15 20 24 34 24 12 0 30 3 39 6 12 5 16 2 15 -12 -6 -57 15 -84 65 -84 49 0 80 15 122 58 l37 39 16 -31 c20 -41 68 -47 115 -14 33 22 115 135 115 157 0 25 -22 7 -60 -50 -46 -67 -80 -90 -105 -69 -23 19 -18 54 11 81 44 40 122 158 139 209 35 105 1 151 -68 91z m53 -38 c0 -37 -113 -233 -127 -219 -7 6 45 127 79 184 33 54 48 65 48 35z m-265 -183 c3 -5 -1 -23 -10 -38 -18 -30 -82 -79 -91 -69 -7 6 44 88 65 104 20 15 28 16 36 3z m-529 -84 c7 -17 -37 -116 -72 -161 -58 -76 -85 -26 -39 73 36 78 96 126 111 88z"/> <path d="M1197 1567 c-24 -12 -97 -28 -196 -43 -178 -26 -249 -49 -298 -95 -82 -80 -56 -176 45 -167 38 4 31 11 -20 22 -15 4 -33 16 -39 27 -25 47 60 109 182 135 39 8 73 13 75 12 1 -2 -35 -105 -81 -228 -46 -124 -85 -234 -87 -245 -2 -17 2 -19 27 -17 17 2 35 9 41 15 6 7 32 73 57 147 26 74 64 180 85 235 l38 100 46 6 c64 10 133 42 153 73 25 38 15 46 -28 23z m-193 -89 c-20 -35 -26 -39 -39 -21 -17 23 -10 33 21 33 17 0 23 -4 18 -12z"/> <path d="M1077 996 c-88 -32 -145 -105 -131 -168 3 -18 30 -55 61 -87 30 -31 61 -65 69 -76 47 -65 -27 -179 -125 -192 -31 -4 -46 -1 -61 12 -33 30 -24 72 28 127 14 15 23 30 20 34 -11 11 -77 -28 -108 -62 -71 -82 -4 -167 118 -149 141 21 248 144 208 239 -8 19 -42 64 -75 100 -41 44 -61 74 -61 90 0 60 110 133 160 106 24 -13 27 -72 5 -110 -19 -34 -18 -40 5 -40 29 0 60 56 60 107 0 33 -5 46 -26 62 -31 24 -90 27 -147 7z"/> <path d="M2148 950 c-9 -6 -22 -27 -29 -48 -28 -86 -102 -202 -130 -202 -21 0 -15 43 21 133 22 55 38 102 37 104 -2 1 -16 -1 -33 -5 -25 -7 -33 -19 -59 -87 -34 -90 -100 -173 -128 -162 -23 8 -15 40 30 130 18 37 31 73 27 78 -6 11 -63 6 -97 -7 -9 -3 -16 3 -20 15 -7 27 -32 27 -51 -1 -11 -16 -12 -26 -5 -41 9 -16 6 -27 -17 -60 -39 -55 -50 -56 -46 -7 13 136 -164 85 -228 -65 -21 -50 -93 -129 -112 -123 -24 8 -19 46 19 141 l37 95 52 7 c52 6 95 27 82 40 -4 4 -30 2 -59 -4 -28 -6 -54 -9 -56 -7 -3 2 3 18 12 36 19 37 15 45 -18 36 -15 -3 -30 -20 -41 -45 -15 -31 -25 -40 -52 -46 -21 -4 -34 -12 -34 -22 0 -11 6 -14 25 -9 14 4 25 5 25 3 0 -1 -16 -41 -36 -87 -40 -92 -49 -164 -24 -180 34 -22 72 -11 118 35 24 25 46 45 48 45 2 0 4 -8 4 -18 0 -29 21 -42 67 -42 37 0 50 6 87 40 24 22 49 54 56 70 7 17 18 30 26 30 21 0 80 57 94 89 10 26 34 40 67 41 7 0 2 -17 -12 -42 -49 -89 -57 -172 -17 -180 26 -6 64 10 98 43 l31 30 11 -26 c19 -40 57 -33 109 20 l43 45 -21 -52 c-54 -140 -105 -192 -148 -153 -20 17 -21 17 -27 0 -17 -44 43 -75 99 -52 54 23 80 69 149 262 36 99 68 188 73 198 5 13 3 17 -11 17 -11 0 -27 -5 -36 -10z m-544 -163 c-2 -48 -9 -55 -34 -32 -23 21 -26 45 -8 63 24 24 43 9 42 -31z m-66 -59 c8 -10 21 -18 29 -18 18 0 17 -7 -13 -45 -30 -39 -59 -52 -79 -35 -21 17 -19 37 12 100 20 42 27 50 31 35 2 -11 11 -28 20 -37z"/> </g> </svg> 